<svg xmlns="http://www.w3.org/2000/svg" xmlns:xlink="http://www.w3.org/1999/xlink" width="1332" zoomAndPan="magnify" viewBox="0 0 999 317.249999" height="423" preserveAspectRatio="xMidYMid meet" version="1.0"><defs><g/><clipPath id="a1f357f3d9"><path d="M 79 0.640625 L 248 0.640625 L 248 315.984375 L 79 315.984375 Z M 79 0.640625 " clip-rule="nonzero"/></clipPath><clipPath id="98ebded3a0"><path d="M 1.179688 164 L 51 164 L 51 173 L 1.179688 173 Z M 1.179688 164 " clip-rule="nonzero"/></clipPath><clipPath id="8970c1425c"><path d="M 274 177 L 324.414062 177 L 324.414062 187 L 274 187 Z M 274 177 " clip-rule="nonzero"/></clipPath></defs><g clip-path="url(#a1f357f3d9)"><path fill="#ff914d" d="M 161.371094 301.148438 L 146.941406 179 C 146.738281 177.410156 145.425781 176.222656 143.886719 176.148438 C 143.738281 176.148438 143.609375 176.148438 143.460938 176.148438 L 87.734375 180.511719 L 166.769531 15.097656 L 183.140625 137.804688 C 183.367188 139.519531 184.90625 140.730469 186.648438 140.601562 L 239.121094 135.382812 Z M 244.140625 128.394531 L 189.121094 133.84375 L 171.765625 3.492188 L 168.609375 3.921875 L 171.738281 3.46875 C 171.5625 2.054688 170.453125 0.917969 169.039062 0.691406 C 167.578125 0.492188 166.238281 1.222656 165.632812 2.507812 L 79.484375 182.78125 C 78.980469 183.816406 79.078125 185.054688 79.734375 185.988281 C 80.390625 186.945312 81.527344 187.476562 82.636719 187.398438 L 140.886719 182.832031 L 156.273438 313.132812 C 156.425781 314.570312 157.535156 315.730469 158.949219 315.957031 C 159.074219 315.984375 159.203125 315.984375 159.328125 315.984375 C 160.613281 316.058594 161.851562 315.328125 162.40625 314.140625 L 247.371094 132.984375 C 247.875 131.925781 247.773438 130.6875 247.09375 129.753906 C 246.410156 128.796875 245.300781 128.292969 244.140625 128.394531 " fill-opacity="1" fill-rule="nonzero"/></g><path fill="#ff914d" d="M 101.078125 60.757812 C 101.886719 60.808594 102.691406 60.558594 103.347656 60.003906 C 104.710938 58.816406 104.863281 56.796875 103.703125 55.4375 L 75.523438 22.664062 C 74.363281 21.328125 72.320312 21.175781 70.957031 22.335938 C 69.59375 23.5 69.441406 25.542969 70.601562 26.878906 L 98.78125 59.648438 C 99.386719 60.355469 100.21875 60.734375 101.078125 60.757812 " fill-opacity="1" fill-rule="nonzero"/><path fill="#ff914d" d="M 64.222656 105.007812 L 25.394531 86.214844 C 23.78125 85.429688 21.863281 86.085938 21.082031 87.703125 C 20.300781 89.316406 20.980469 91.257812 22.570312 92.015625 L 61.394531 110.835938 C 61.800781 111.011719 62.226562 111.113281 62.65625 111.136719 C 63.917969 111.214844 65.128906 110.53125 65.710938 109.320312 C 66.492188 107.707031 65.835938 105.789062 64.222656 105.007812 " fill-opacity="1" fill-rule="nonzero"/><g clip-path="url(#98ebded3a0)"><path fill="#ff914d" d="M 50.699219 169.613281 C 50.773438 167.824219 49.414062 166.335938 47.648438 166.257812 C 47.621094 166.257812 47.621094 166.257812 47.597656 166.257812 L 4.535156 164.492188 C 2.765625 164.441406 1.253906 165.804688 1.179688 167.597656 C 1.101562 169.386719 2.488281 170.875 4.253906 170.953125 C 4.253906 170.953125 4.28125 170.953125 4.28125 170.953125 L 47.34375 172.71875 C 49.136719 172.792969 50.648438 171.40625 50.699219 169.613281 " fill-opacity="1" fill-rule="nonzero"/></g><path fill="#ff914d" d="M 56.601562 229.074219 L 16.363281 244.664062 C 14.699219 245.296875 13.894531 247.1875 14.523438 248.851562 C 15.003906 250.0625 16.164062 250.847656 17.398438 250.894531 C 17.828125 250.921875 18.28125 250.847656 18.710938 250.695312 L 58.949219 235.105469 C 60.589844 234.449219 61.421875 232.582031 60.789062 230.917969 C 60.132812 229.25 58.242188 228.417969 56.601562 229.074219 " fill-opacity="1" fill-rule="nonzero"/><path fill="#ff914d" d="M 234.808594 67.167969 C 235.664062 67.191406 236.523438 66.890625 237.203125 66.257812 L 268.359375 36.339844 C 269.671875 35.101562 269.695312 33.058594 268.460938 31.773438 C 267.222656 30.484375 265.179688 30.4375 263.894531 31.671875 L 232.714844 61.589844 C 231.425781 62.828125 231.402344 64.871094 232.636719 66.15625 C 233.21875 66.789062 234 67.117188 234.808594 67.167969 " fill-opacity="1" fill-rule="nonzero"/><path fill="#ff914d" d="M 265.382812 118.855469 C 265.835938 120.117188 266.996094 120.902344 268.257812 120.976562 C 268.6875 120.976562 269.117188 120.925781 269.546875 120.773438 L 309.984375 105.765625 C 311.648438 105.132812 312.507812 103.265625 311.875 101.601562 C 311.269531 99.910156 309.40625 99.078125 307.738281 99.683594 L 267.300781 114.695312 C 265.609375 115.324219 264.777344 117.191406 265.382812 118.855469 " fill-opacity="1" fill-rule="nonzero"/><g clip-path="url(#8970c1425c)"><path fill="#ff914d" d="M 321.035156 179.628906 L 277.972656 177.257812 C 277.972656 177.257812 277.972656 177.257812 277.945312 177.257812 C 276.179688 177.15625 274.667969 178.519531 274.589844 180.3125 C 274.488281 182.078125 275.851562 183.617188 277.617188 183.714844 L 320.679688 186.0625 C 320.679688 186.085938 320.679688 186.085938 320.707031 186.085938 C 322.472656 186.164062 323.984375 184.800781 324.085938 183.035156 C 324.1875 181.242188 322.800781 179.707031 321.035156 179.628906 " fill-opacity="1" fill-rule="nonzero"/></g><path fill="#ff914d" d="M 301.609375 258.289062 L 263.0625 238.9375 C 261.449219 238.132812 259.53125 238.761719 258.722656 240.375 C 257.914062 241.964844 258.546875 243.910156 260.136719 244.714844 L 298.707031 264.066406 C 299.136719 264.265625 299.566406 264.394531 299.996094 264.394531 C 301.230469 264.46875 302.441406 263.8125 303.046875 262.628906 C 303.828125 261.039062 303.199219 259.09375 301.609375 258.289062 " fill-opacity="1" fill-rule="nonzero"/><g fill="#004aad" fill-opacity="1"><g transform="translate(330.945286, 219.580565)"><g><path d="M 8.296875 -13.4375 C 7.410156 -14.757812 6.992188 -16.054688 7.046875 -17.328125 C 7.109375 -18.609375 7.800781 -19.632812 9.125 -20.40625 C 10.007812 -21.175781 11.03125 -21.503906 12.1875 -21.390625 C 13.351562 -21.285156 14.429688 -20.734375 15.421875 -19.734375 C 18.410156 -15.867188 22.035156 -12.742188 26.296875 -10.359375 C 30.554688 -7.984375 35.613281 -6.796875 41.46875 -6.796875 C 44.570312 -6.796875 47.640625 -7.320312 50.671875 -8.375 C 53.710938 -9.425781 56.226562 -11.03125 58.21875 -13.1875 C 60.21875 -15.34375 61.21875 -18.082031 61.21875 -21.40625 C 61.21875 -24.832031 60.21875 -27.59375 58.21875 -29.6875 C 56.226562 -31.789062 53.65625 -33.453125 50.5 -34.671875 C 47.351562 -35.890625 44.015625 -36.941406 40.484375 -37.828125 C 36.722656 -38.816406 33.070312 -39.945312 29.53125 -41.21875 C 25.988281 -42.488281 22.863281 -44.09375 20.15625 -46.03125 C 17.445312 -47.96875 15.257812 -50.316406 13.59375 -53.078125 C 11.9375 -55.847656 11.109375 -59.222656 11.109375 -63.203125 C 11.109375 -67.847656 12.378906 -71.9375 14.921875 -75.46875 C 17.472656 -79.007812 20.929688 -81.773438 25.296875 -83.765625 C 29.660156 -85.765625 34.609375 -86.765625 40.140625 -86.765625 C 42.910156 -86.765625 45.898438 -86.40625 49.109375 -85.6875 C 52.316406 -84.96875 55.46875 -83.773438 58.5625 -82.109375 C 61.65625 -80.453125 64.421875 -78.1875 66.859375 -75.3125 C 67.847656 -74.320312 68.34375 -73.1875 68.34375 -71.90625 C 68.34375 -70.632812 67.789062 -69.503906 66.6875 -68.515625 C 65.800781 -67.847656 64.773438 -67.515625 63.609375 -67.515625 C 62.453125 -67.515625 61.488281 -67.957031 60.71875 -68.84375 C 58.0625 -71.832031 54.90625 -74.097656 51.25 -75.640625 C 47.601562 -77.191406 43.679688 -77.96875 39.484375 -77.96875 C 36.273438 -77.96875 33.257812 -77.441406 30.4375 -76.390625 C 27.613281 -75.335938 25.265625 -73.757812 23.390625 -71.65625 C 21.515625 -69.5625 20.578125 -66.800781 20.578125 -63.375 C 20.796875 -60.164062 21.925781 -57.566406 23.96875 -55.578125 C 26.019531 -53.585938 28.726562 -51.925781 32.09375 -50.59375 C 35.46875 -49.269531 39.257812 -48.054688 43.46875 -46.953125 C 47 -46.066406 50.394531 -45.015625 53.65625 -43.796875 C 56.925781 -42.578125 59.804688 -41.054688 62.296875 -39.234375 C 64.785156 -37.410156 66.773438 -35.113281 68.265625 -32.34375 C 69.753906 -29.582031 70.5 -26.097656 70.5 -21.890625 C 70.5 -17.023438 69.144531 -12.820312 66.4375 -9.28125 C 63.726562 -5.75 60.101562 -3.039062 55.5625 -1.15625 C 51.03125 0.71875 46.003906 1.65625 40.484375 1.65625 C 34.503906 1.65625 28.722656 0.492188 23.140625 -1.828125 C 17.554688 -4.148438 12.609375 -8.019531 8.296875 -13.4375 Z M 8.296875 -13.4375 "/></g></g></g><g fill="#004aad" fill-opacity="1"><g transform="translate(408.739971, 219.580565)"><g><path d="M 53.421875 -85.4375 C 60.941406 -85.4375 67.601562 -83.582031 73.40625 -79.875 C 79.207031 -76.164062 83.820312 -71.078125 87.25 -64.609375 C 90.6875 -58.140625 92.40625 -50.703125 92.40625 -42.296875 C 92.40625 -33.890625 90.6875 -26.425781 87.25 -19.90625 C 83.820312 -13.382812 79.175781 -8.242188 73.3125 -4.484375 C 67.457031 -0.722656 60.878906 1.15625 53.578125 1.15625 C 49.710938 1.15625 46.035156 0.578125 42.546875 -0.578125 C 39.066406 -1.742188 35.890625 -3.320312 33.015625 -5.3125 C 30.140625 -7.300781 27.59375 -9.648438 25.375 -12.359375 C 23.164062 -15.066406 21.398438 -18.023438 20.078125 -21.234375 L 23.0625 -23.390625 L 23.0625 28.203125 C 23.0625 29.523438 22.585938 30.679688 21.640625 31.671875 C 20.703125 32.671875 19.515625 33.171875 18.078125 33.171875 C 16.640625 33.171875 15.453125 32.671875 14.515625 31.671875 C 13.578125 30.679688 13.109375 29.523438 13.109375 28.203125 L 13.109375 -79.953125 C 13.109375 -81.390625 13.550781 -82.609375 14.4375 -83.609375 C 15.320312 -84.609375 16.535156 -85.109375 18.078125 -85.109375 C 19.515625 -85.109375 20.703125 -84.609375 21.640625 -83.609375 C 22.585938 -82.609375 23.0625 -81.390625 23.0625 -79.953125 L 23.0625 -62.046875 L 20.734375 -63.375 C 21.835938 -66.800781 23.46875 -69.867188 25.625 -72.578125 C 27.78125 -75.285156 30.296875 -77.609375 33.171875 -79.546875 C 36.046875 -81.484375 39.195312 -82.945312 42.625 -83.9375 C 46.0625 -84.9375 49.660156 -85.4375 53.421875 -85.4375 Z M 52.59375 -76.140625 C 46.613281 -76.140625 41.359375 -74.675781 36.828125 -71.75 C 32.296875 -68.820312 28.726562 -64.835938 26.125 -59.796875 C 23.53125 -54.765625 22.234375 -48.929688 22.234375 -42.296875 C 22.234375 -35.773438 23.53125 -29.914062 26.125 -24.71875 C 28.726562 -19.519531 32.296875 -15.453125 36.828125 -12.515625 C 41.359375 -9.585938 46.613281 -8.125 52.59375 -8.125 C 58.445312 -8.125 63.613281 -9.585938 68.09375 -12.515625 C 72.570312 -15.453125 76.140625 -19.519531 78.796875 -24.71875 C 81.453125 -29.914062 82.78125 -35.773438 82.78125 -42.296875 C 82.78125 -48.828125 81.453125 -54.632812 78.796875 -59.71875 C 76.140625 -64.8125 72.570312 -68.820312 68.09375 -71.75 C 63.613281 -74.675781 58.445312 -76.140625 52.59375 -76.140625 Z M 52.59375 -76.140625 "/></g></g></g><g fill="#004aad" fill-opacity="1"><g transform="translate(509.25932, 219.580565)"><g><path d="M 82.609375 -84.765625 C 84.046875 -84.765625 85.234375 -84.265625 86.171875 -83.265625 C 87.117188 -82.273438 87.59375 -81.0625 87.59375 -79.625 L 87.59375 -4.984375 C 87.59375 -3.648438 87.09375 -2.484375 86.09375 -1.484375 C 85.101562 -0.492188 83.941406 0 82.609375 0 C 81.171875 0 79.984375 -0.492188 79.046875 -1.484375 C 78.109375 -2.484375 77.640625 -3.648438 77.640625 -4.984375 L 77.640625 -24.71875 L 80.453125 -26.046875 C 80.453125 -22.953125 79.59375 -19.800781 77.875 -16.59375 C 76.164062 -13.382812 73.816406 -10.394531 70.828125 -7.625 C 67.847656 -4.863281 64.335938 -2.625 60.296875 -0.90625 C 56.265625 0.800781 51.925781 1.65625 47.28125 1.65625 C 39.757812 1.65625 33.039062 -0.273438 27.125 -4.140625 C 21.207031 -8.015625 16.5625 -13.320312 13.1875 -20.0625 C 9.8125 -26.8125 8.125 -34.390625 8.125 -42.796875 C 8.125 -51.421875 9.835938 -59.023438 13.265625 -65.609375 C 16.691406 -72.191406 21.335938 -77.363281 27.203125 -81.125 C 33.066406 -84.882812 39.703125 -86.765625 47.109375 -86.765625 C 51.867188 -86.765625 56.320312 -85.929688 60.46875 -84.265625 C 64.613281 -82.609375 68.234375 -80.34375 71.328125 -77.46875 C 74.429688 -74.59375 76.835938 -71.300781 78.546875 -67.59375 C 80.265625 -63.894531 81.125 -60.054688 81.125 -56.078125 L 77.640625 -58.5625 L 77.640625 -79.625 C 77.640625 -81.0625 78.109375 -82.273438 79.046875 -83.265625 C 79.984375 -84.265625 81.171875 -84.765625 82.609375 -84.765625 Z M 48.109375 -7.625 C 53.972656 -7.625 59.171875 -9.144531 63.703125 -12.1875 C 68.234375 -15.226562 71.796875 -19.429688 74.390625 -24.796875 C 76.992188 -30.160156 78.296875 -36.160156 78.296875 -42.796875 C 78.296875 -49.328125 76.992188 -55.191406 74.390625 -60.390625 C 71.796875 -65.585938 68.234375 -69.734375 63.703125 -72.828125 C 59.171875 -75.921875 53.972656 -77.46875 48.109375 -77.46875 C 42.359375 -77.46875 37.1875 -75.972656 32.59375 -72.984375 C 28.007812 -70.003906 24.414062 -65.914062 21.8125 -60.71875 C 19.21875 -55.519531 17.921875 -49.546875 17.921875 -42.796875 C 17.921875 -36.160156 19.21875 -30.160156 21.8125 -24.796875 C 24.414062 -19.429688 27.984375 -15.226562 32.515625 -12.1875 C 37.046875 -9.144531 42.242188 -7.625 48.109375 -7.625 Z M 48.109375 -7.625 "/></g></g></g><g fill="#004aad" fill-opacity="1"><g transform="translate(609.778669, 219.580565)"><g><path d="M 18.078125 0 C 16.535156 0 15.320312 -0.492188 14.4375 -1.484375 C 13.550781 -2.484375 13.109375 -3.648438 13.109375 -4.984375 L 13.109375 -79.296875 C 13.109375 -80.617188 13.578125 -81.773438 14.515625 -82.765625 C 15.453125 -83.765625 16.640625 -84.265625 18.078125 -84.265625 C 19.515625 -84.265625 20.703125 -83.765625 21.640625 -82.765625 C 22.585938 -81.773438 23.0625 -80.617188 23.0625 -79.296875 L 23.0625 -54.40625 L 20.578125 -53.921875 C 20.898438 -57.785156 21.863281 -61.625 23.46875 -65.4375 C 25.070312 -69.257812 27.253906 -72.769531 30.015625 -75.96875 C 32.785156 -79.175781 36.078125 -81.773438 39.890625 -83.765625 C 43.710938 -85.765625 48 -86.765625 52.75 -86.765625 C 54.738281 -86.765625 56.671875 -86.347656 58.546875 -85.515625 C 60.429688 -84.679688 61.375 -83.328125 61.375 -81.453125 C 61.375 -79.796875 60.929688 -78.523438 60.046875 -77.640625 C 59.160156 -76.753906 58.113281 -76.3125 56.90625 -76.3125 C 55.90625 -76.3125 54.820312 -76.585938 53.65625 -77.140625 C 52.5 -77.691406 50.984375 -77.96875 49.109375 -77.96875 C 46.003906 -77.96875 42.90625 -77.054688 39.8125 -75.234375 C 36.71875 -73.410156 33.894531 -70.945312 31.34375 -67.84375 C 28.800781 -64.75 26.785156 -61.296875 25.296875 -57.484375 C 23.804688 -53.671875 23.0625 -49.828125 23.0625 -45.953125 L 23.0625 -4.984375 C 23.0625 -3.648438 22.5625 -2.484375 21.5625 -1.484375 C 20.570312 -0.492188 19.410156 0 18.078125 0 Z M 18.078125 0 "/></g></g></g><g fill="#004aad" fill-opacity="1"><g transform="translate(673.63997, 219.580565)"><g><path d="M 19.078125 0 C 17.640625 0 16.445312 -0.492188 15.5 -1.484375 C 14.5625 -2.484375 14.09375 -3.648438 14.09375 -4.984375 L 14.09375 -117.78125 C 14.09375 -119.101562 14.5625 -120.265625 15.5 -121.265625 C 16.445312 -122.265625 17.640625 -122.765625 19.078125 -122.765625 C 20.515625 -122.765625 21.703125 -122.265625 22.640625 -121.265625 C 23.578125 -120.265625 24.046875 -119.101562 24.046875 -117.78125 L 24.046875 -4.984375 C 24.046875 -3.648438 23.578125 -2.484375 22.640625 -1.484375 C 21.703125 -0.492188 20.515625 0 19.078125 0 Z M 75.484375 -85.109375 C 76.703125 -85.109375 77.804688 -84.582031 78.796875 -83.53125 C 79.796875 -82.476562 80.296875 -81.34375 80.296875 -80.125 C 80.296875 -78.6875 79.6875 -77.414062 78.46875 -76.3125 L 22.734375 -28.859375 L 22.234375 -40.640625 L 72 -83.4375 C 72.988281 -84.550781 74.148438 -85.109375 75.484375 -85.109375 Z M 76.8125 0 C 75.375 0 74.15625 -0.609375 73.15625 -1.828125 L 35.328125 -41.96875 L 42.796875 -48.765625 L 80.296875 -8.796875 C 81.285156 -7.691406 81.78125 -6.421875 81.78125 -4.984375 C 81.78125 -3.429688 81.171875 -2.210938 79.953125 -1.328125 C 78.742188 -0.441406 77.695312 0 76.8125 0 Z M 76.8125 0 "/></g></g></g><g fill="#004aad" fill-opacity="1"><g transform="translate(762.382306, 219.580565)"><g><path d="M 22.734375 -4.984375 C 22.734375 -3.648438 22.234375 -2.484375 21.234375 -1.484375 C 20.234375 -0.492188 19.070312 0 17.75 0 C 16.3125 0 15.125 -0.492188 14.1875 -1.484375 C 13.25 -2.484375 12.78125 -3.648438 12.78125 -4.984375 L 12.78125 -81.28125 C 12.78125 -82.613281 13.25 -83.773438 14.1875 -84.765625 C 15.125 -85.765625 16.3125 -86.265625 17.75 -86.265625 C 19.1875 -86.265625 20.375 -85.765625 21.3125 -84.765625 C 22.257812 -83.773438 22.734375 -82.613281 22.734375 -81.28125 Z M 17.75 -97.375 C 15.425781 -97.375 13.679688 -97.898438 12.515625 -98.953125 C 11.359375 -100.003906 10.78125 -101.523438 10.78125 -103.515625 L 10.78125 -105.171875 C 10.78125 -107.160156 11.414062 -108.679688 12.6875 -109.734375 C 13.957031 -110.785156 15.695312 -111.3125 17.90625 -111.3125 C 20.007812 -111.3125 21.640625 -110.785156 22.796875 -109.734375 C 23.960938 -108.679688 24.546875 -107.160156 24.546875 -105.171875 L 24.546875 -103.515625 C 24.546875 -101.523438 23.960938 -100.003906 22.796875 -98.953125 C 21.640625 -97.898438 19.957031 -97.375 17.75 -97.375 Z M 17.75 -97.375 "/></g></g></g><g fill="#004aad" fill-opacity="1"><g transform="translate(797.879213, 219.580565)"><g><path d="M 43.796875 -122.09375 C 45.453125 -122.09375 47.25 -121.925781 49.1875 -121.59375 C 51.125 -121.257812 52.8125 -120.675781 54.25 -119.84375 C 55.6875 -119.019531 56.40625 -117.78125 56.40625 -116.125 C 56.40625 -114.90625 55.960938 -113.828125 55.078125 -112.890625 C 54.191406 -111.953125 53.195312 -111.484375 52.09375 -111.484375 C 50.988281 -111.484375 49.601562 -111.785156 47.9375 -112.390625 C 46.28125 -112.992188 44.515625 -113.296875 42.640625 -113.296875 C 40.316406 -113.296875 38.320312 -112.769531 36.65625 -111.71875 C 35 -110.675781 33.726562 -109.1875 32.84375 -107.25 C 31.957031 -105.3125 31.515625 -102.960938 31.515625 -100.203125 L 31.515625 -4.984375 C 31.515625 -3.648438 31.046875 -2.484375 30.109375 -1.484375 C 29.171875 -0.492188 27.984375 0 26.546875 0 C 25.109375 0 23.914062 -0.492188 22.96875 -1.484375 C 22.03125 -2.484375 21.5625 -3.648438 21.5625 -4.984375 L 21.5625 -100.203125 C 21.5625 -107.273438 23.632812 -112.691406 27.78125 -116.453125 C 31.925781 -120.210938 37.265625 -122.09375 43.796875 -122.09375 Z M 50.09375 -83.109375 C 51.425781 -83.109375 52.535156 -82.664062 53.421875 -81.78125 C 54.304688 -80.894531 54.75 -79.789062 54.75 -78.46875 C 54.75 -77.132812 54.304688 -76.023438 53.421875 -75.140625 C 52.535156 -74.265625 51.425781 -73.828125 50.09375 -73.828125 L 9.453125 -73.828125 C 8.234375 -73.828125 7.15625 -74.296875 6.21875 -75.234375 C 5.28125 -76.171875 4.8125 -77.25 4.8125 -78.46875 C 4.8125 -79.90625 5.28125 -81.035156 6.21875 -81.859375 C 7.15625 -82.691406 8.234375 -83.109375 9.453125 -83.109375 Z M 50.09375 -83.109375 "/></g></g></g><g fill="#004aad" fill-opacity="1"><g transform="translate(857.593663, 219.580565)"><g><path d="M 76.3125 -86.265625 C 77.75 -86.265625 78.9375 -85.765625 79.875 -84.765625 C 80.8125 -83.773438 81.28125 -82.613281 81.28125 -81.28125 L 81.28125 -8.125 C 81.28125 0.832031 79.507812 8.378906 75.96875 14.515625 C 72.4375 20.648438 67.679688 25.289062 61.703125 28.4375 C 55.734375 31.59375 48.9375 33.171875 41.3125 33.171875 C 36.550781 33.171875 32.148438 32.644531 28.109375 31.59375 C 24.078125 30.550781 20.789062 29.195312 18.25 27.53125 C 16.914062 26.757812 15.914062 25.820312 15.25 24.71875 C 14.59375 23.613281 14.539062 22.453125 15.09375 21.234375 C 15.644531 19.679688 16.5 18.65625 17.65625 18.15625 C 18.820312 17.664062 20.015625 17.695312 21.234375 18.25 C 23.109375 19.238281 25.816406 20.453125 29.359375 21.890625 C 32.898438 23.328125 36.9375 24.046875 41.46875 24.046875 C 47.550781 24.046875 52.832031 22.773438 57.3125 20.234375 C 61.789062 17.691406 65.242188 14.015625 67.671875 9.203125 C 70.109375 4.390625 71.328125 -1.332031 71.328125 -7.96875 L 71.328125 -19.90625 L 72.5 -15.921875 C 70.832031 -12.492188 68.476562 -9.453125 65.4375 -6.796875 C 62.394531 -4.140625 58.910156 -2.066406 54.984375 -0.578125 C 51.066406 0.910156 46.894531 1.65625 42.46875 1.65625 C 35.832031 1.65625 30.328125 0.300781 25.953125 -2.40625 C 21.585938 -5.113281 18.351562 -8.84375 16.25 -13.59375 C 14.15625 -18.351562 13.109375 -23.941406 13.109375 -30.359375 L 13.109375 -81.28125 C 13.109375 -82.613281 13.550781 -83.773438 14.4375 -84.765625 C 15.320312 -85.765625 16.535156 -86.265625 18.078125 -86.265625 C 19.515625 -86.265625 20.703125 -85.765625 21.640625 -84.765625 C 22.585938 -83.773438 23.0625 -82.613281 23.0625 -81.28125 L 23.0625 -31.84375 C 23.0625 -24.101562 24.742188 -18.128906 28.109375 -13.921875 C 31.484375 -9.722656 36.988281 -7.625 44.625 -7.625 C 49.382812 -7.625 53.753906 -8.757812 57.734375 -11.03125 C 61.710938 -13.300781 64.972656 -16.285156 67.515625 -19.984375 C 70.054688 -23.691406 71.328125 -27.644531 71.328125 -31.84375 L 71.328125 -81.28125 C 71.328125 -82.613281 71.796875 -83.773438 72.734375 -84.765625 C 73.679688 -85.765625 74.875 -86.265625 76.3125 -86.265625 Z M 76.3125 -86.265625 "/></g></g></g></svg>